<svg width="193" height="40" viewBox="0 0 193 40" fill="none" xmlns="http://www.w3.org/2000/svg">
<path d="M74.9551 19.0592V17.9205H76.4745V6.27536H74.9551V5.13672H81.719C83.0424 5.13672 84.0717 5.49901 84.856 6.2236C85.6402 6.94819 86.0323 7.93156 86.0323 9.17372C86.0323 10.4159 85.6402 11.3992 84.856 12.1238C84.0717 12.8484 83.0424 13.2107 81.719 13.2107H79.5134V17.817H81.425V18.9557H74.9551V19.0592ZM79.5134 12.1756H80.3957C81.0819 12.1756 81.621 11.9168 82.0621 11.3475C82.4543 10.8299 82.6993 10.1053 82.6993 9.17372C82.6993 8.29386 82.5033 7.56927 82.1112 7.0517C81.719 6.53414 81.1309 6.27536 80.4447 6.27536H79.5134V12.1756Z" fill="white"/>
<path d="M97.1096 12.2791C97.5997 12.3826 97.9918 12.5379 98.2859 12.8484C98.629 13.159 98.8741 13.5213 99.1192 14.0906L100.835 17.9723H102.06V19.111H98.1879L96.2763 14.9187C95.9332 14.0388 95.5901 13.5213 95.3451 13.2625C95.1 13.0037 94.7569 12.9002 94.2667 12.9002H93.7766V17.9723H95.296V19.111H89.2183V17.9723H90.7377V6.27536H89.2183V5.13672H95.9822C97.3546 5.13672 98.433 5.44726 99.1682 6.12009C99.9034 6.79293 100.296 7.67278 100.296 8.86318C100.296 9.84655 100.05 10.5711 99.5113 11.1405C98.9721 11.7615 98.1879 12.1238 97.1096 12.2791ZM93.8256 11.7098H94.8549C95.5901 11.7098 96.1783 11.451 96.5704 10.9852C96.9625 10.5194 97.1586 9.84656 97.1586 8.9667C97.1586 8.08684 96.9625 7.414 96.5704 6.94819C96.1783 6.48239 95.5901 6.27536 94.8549 6.27536H93.8256V11.7098Z" fill="white"/>
<path d="M110.932 19.318C108.922 19.318 107.354 18.6969 106.226 17.403C105.099 16.1091 104.511 14.3494 104.511 12.1238C104.511 9.89831 105.099 8.13859 106.226 6.84468C107.354 5.55077 108.922 4.92969 110.932 4.92969C112.941 4.92969 114.51 5.55077 115.637 6.84468C116.764 8.13859 117.352 9.89831 117.352 12.1238C117.352 14.3494 116.764 16.1091 115.637 17.403C114.51 18.6969 112.941 19.318 110.932 19.318ZM110.932 18.1793C111.961 18.1793 112.696 17.6618 113.186 16.6784C113.676 15.695 113.921 14.1423 113.921 12.1238C113.921 10.0536 113.676 8.55264 113.186 7.51751C112.696 6.53414 111.961 6.01657 110.932 6.01657C109.902 6.01657 109.167 6.53414 108.677 7.51751C108.187 8.50088 107.942 10.0536 107.942 12.0721C107.942 14.0906 108.187 15.6433 108.677 16.6266C109.216 17.7135 109.951 18.1793 110.932 18.1793Z" fill="white"/>
<path d="M131.567 9.53601C131.322 8.29386 130.93 7.414 130.391 6.84468C129.851 6.27536 129.067 6.01657 128.038 6.01657C126.812 6.01657 125.93 6.48238 125.342 7.46575C124.754 8.44913 124.46 10.0018 124.46 12.0721C124.46 14.1423 124.754 15.695 125.293 16.6784C125.832 17.6618 126.714 18.1793 127.842 18.1793C128.283 18.1793 128.675 18.1276 129.067 18.0241C129.459 17.9206 129.802 17.7135 130.096 17.5065V13.6765H128.675V12.5379H132.939V17.8688C132.057 18.3346 131.175 18.6969 130.293 18.9557C129.41 19.2145 128.479 19.318 127.597 19.318C125.587 19.318 123.97 18.6969 122.793 17.403C121.617 16.1091 121.029 14.3494 121.029 12.1238C121.029 9.89831 121.617 8.13859 122.793 6.84468C123.97 5.55077 125.538 4.92969 127.597 4.92969C128.43 4.92969 129.263 5.0332 130.096 5.24023C130.93 5.44725 131.763 5.75779 132.547 6.12009V9.53601H131.567Z" fill="white"/>
<path d="M144.947 12.2791C145.438 12.3826 145.83 12.5379 146.124 12.8484C146.467 13.159 146.712 13.5213 146.957 14.0906L148.673 17.9723H149.898V19.111H146.026L144.114 14.9187C143.771 14.0388 143.428 13.5213 143.183 13.2625C142.938 13.0037 142.595 12.9002 142.105 12.9002H141.614V17.9723H143.134V19.111H137.056V17.9723H138.576V6.27536H137.056V5.13672H143.82C145.193 5.13672 146.271 5.44726 147.006 6.12009C147.741 6.79293 148.133 7.67278 148.133 8.86318C148.133 9.84655 147.888 10.5711 147.349 11.1405C146.81 11.7615 145.977 12.1238 144.947 12.2791ZM141.614 11.7098H142.644C143.379 11.7098 143.967 11.451 144.359 10.9852C144.751 10.5194 144.947 9.84656 144.947 8.9667C144.947 8.08684 144.751 7.414 144.359 6.94819C143.967 6.48239 143.379 6.27536 142.644 6.27536H141.614V11.7098Z" fill="white"/>
<path d="M153.28 19.0592V17.9205H154.799V6.27536H153.28V5.13672H163.916V8.39737H162.838V6.43063H157.838V10.8817H160.926V9.12196H162.004V13.9353H160.926V12.1756H157.838V17.817H162.985V15.7985H164.063V19.0592H153.28Z" fill="white"/>
<path d="M168.376 18.3864V15.074H169.406C169.553 16.1091 169.945 16.8854 170.484 17.403C171.072 17.9206 171.856 18.1794 172.837 18.1794C173.67 18.1794 174.258 17.9723 174.699 17.61C175.14 17.2477 175.336 16.7302 175.336 16.0056C175.336 15.4363 175.189 15.0222 174.895 14.7117C174.601 14.4011 174.013 14.0906 173.082 13.8318L171.317 13.3142C170.141 12.9519 169.357 12.4861 168.866 11.8651C168.376 11.244 168.18 10.3641 168.18 9.22548C168.18 7.82805 168.572 6.79292 169.357 6.01657C170.141 5.24022 171.219 4.87793 172.641 4.87793C173.327 4.87793 174.062 4.92969 174.797 5.08496C175.532 5.24023 176.317 5.44725 177.15 5.70603V8.75967H176.121C175.973 7.82805 175.63 7.10346 175.091 6.63765C174.552 6.17184 173.817 5.96482 172.886 5.96482C172.101 5.96482 171.513 6.12009 171.121 6.43062C170.729 6.74116 170.533 7.20697 170.533 7.87981C170.533 8.44913 170.68 8.91494 170.925 9.17372C171.219 9.48426 171.856 9.7948 172.935 10.1053L174.699 10.6229C175.777 10.9334 176.611 11.451 177.101 12.1238C177.591 12.7967 177.836 13.7283 177.836 14.9187C177.836 16.3161 177.444 17.403 176.611 18.1276C175.777 18.8522 174.552 19.2145 172.984 19.2145C172.199 19.2145 171.464 19.1627 170.68 19.0075C169.945 18.9557 169.16 18.6969 168.376 18.3864Z" fill="white"/>
<path d="M182.199 18.3864V15.074H183.228C183.375 16.1091 183.767 16.8854 184.306 17.403C184.894 17.9206 185.679 18.1794 186.659 18.1794C187.492 18.1794 188.08 17.9723 188.521 17.61C188.962 17.2477 189.159 16.7302 189.159 16.0056C189.159 15.4363 189.011 15.0222 188.717 14.7117C188.423 14.4011 187.835 14.0906 186.904 13.8318L185.139 13.3142C183.963 12.9519 183.179 12.4861 182.689 11.8651C182.199 11.244 182.002 10.3641 182.002 9.22548C182.002 7.82805 182.395 6.79292 183.179 6.01657C183.963 5.24022 185.041 4.87793 186.463 4.87793C187.149 4.87793 187.884 4.92969 188.619 5.08496C189.355 5.24023 190.139 5.44725 190.972 5.70603V8.75967H189.943C189.796 7.82805 189.453 7.10346 188.913 6.63765C188.374 6.17184 187.639 5.96482 186.708 5.96482C185.924 5.96482 185.335 6.12009 184.943 6.43062C184.551 6.74116 184.355 7.20697 184.355 7.87981C184.355 8.44913 184.502 8.91494 184.747 9.17372C185.041 9.48426 185.679 9.7948 186.757 10.1053L188.521 10.6229C189.6 10.9334 190.433 11.451 190.923 12.1238C191.413 12.7967 191.658 13.7283 191.658 14.9187C191.658 16.3161 191.266 17.403 190.433 18.1276C189.6 18.8522 188.374 19.2145 186.806 19.2145C186.022 19.2145 185.286 19.1627 184.502 19.0075C183.767 18.9557 182.983 18.6969 182.199 18.3864Z" fill="white"/>
<path d="M77.0137 34.2757C76.1314 34.2757 75.5432 34.0169 74.9551 33.4476L75.3962 32.9818C75.8863 33.4994 76.3765 33.6546 77.0137 33.6546C77.8959 33.6546 78.4351 33.2406 78.4351 32.4642C78.4351 32.1019 78.3371 31.8432 78.141 31.6879C77.9449 31.5326 77.7979 31.4291 77.3568 31.3773L76.6706 31.2738C76.1804 31.1703 75.8373 31.0668 75.5923 30.808C75.2982 30.4975 75.1511 30.1352 75.1511 29.6176C75.1511 28.5307 75.8863 27.8579 77.0627 27.8579C77.8469 27.8579 78.3371 28.0649 78.8272 28.5307L78.4351 28.9448C78.092 28.5825 77.6509 28.3755 77.0137 28.3755C76.1804 28.3755 75.7393 28.8413 75.7393 29.5659C75.7393 29.8764 75.8373 30.1352 76.0334 30.2905C76.2294 30.4457 76.5235 30.5492 76.8176 30.601L77.5038 30.7045C78.043 30.808 78.3371 30.9115 78.5821 31.1703C78.9252 31.4809 79.0723 31.8949 79.0723 32.4125C79.0723 33.6029 78.239 34.2757 77.0137 34.2757Z" fill="white"/>
<path d="M84.7089 33.6546C84.3168 34.0687 83.8266 34.2757 83.2385 34.2757C82.6013 34.2757 82.1111 34.0687 81.719 33.6546C81.1309 33.0336 81.1309 32.516 81.1309 31.0668C81.1309 29.6176 81.1799 29.0483 81.719 28.479C82.1111 28.0649 82.6013 27.8579 83.2385 27.8579C83.8757 27.8579 84.3658 28.0649 84.7089 28.479C85.2971 29.1001 85.2971 29.6176 85.2971 31.0668C85.2971 32.516 85.2481 33.0853 84.7089 33.6546ZM84.2188 28.893C83.9247 28.5825 83.5816 28.4272 83.1895 28.4272C82.7973 28.4272 82.4052 28.5825 82.1602 28.893C81.768 29.3071 81.719 29.7729 81.719 31.0668C81.719 32.3607 81.768 32.8265 82.1602 33.2406C82.4542 33.5511 82.7973 33.7064 83.1895 33.7064C83.5816 33.7064 83.9247 33.5511 84.2188 33.2406C84.6109 32.8265 84.6599 32.3607 84.6599 31.0668C84.6599 29.7729 84.6109 29.3071 84.2188 28.893Z" fill="white"/>
<path d="M88.2378 28.479V30.808H90.8846V31.4291H88.2378V34.224H87.6006V27.8579H91.3257V28.479H88.2378Z" fill="white"/>
<path d="M96.5706 34.224L96.0805 32.7748H93.4337L92.9435 34.224H92.2573L94.463 27.8579H95.0021L97.2078 34.224H96.5706ZM94.8061 28.8413L93.6787 32.2055H95.9334L94.8061 28.8413Z" fill="white"/>
<path d="M100.933 34.2757C100.05 34.2757 99.4622 34.0169 98.874 33.4476L99.3152 32.9818C99.8053 33.4994 100.295 33.6546 100.933 33.6546C101.815 33.6546 102.354 33.2406 102.354 32.4642C102.354 32.1019 102.256 31.8432 102.06 31.6879C101.864 31.5326 101.717 31.4291 101.276 31.3773L100.59 31.2738C100.099 31.1703 99.7563 31.0668 99.5112 30.808C99.2171 30.4975 99.0701 30.1352 99.0701 29.6176C99.0701 28.5307 99.8053 27.8579 100.982 27.8579C101.766 27.8579 102.256 28.0649 102.746 28.5307L102.354 28.9448C102.011 28.5825 101.57 28.3755 100.933 28.3755C100.099 28.3755 99.6583 28.8413 99.6583 29.5659C99.6583 29.8764 99.7563 30.1352 99.9523 30.2905C100.148 30.4457 100.442 30.5492 100.737 30.601L101.423 30.7045C101.962 30.808 102.256 30.9115 102.501 31.1703C102.844 31.4809 102.991 31.8949 102.991 32.4125C102.991 33.6029 102.158 34.2757 100.933 34.2757Z" fill="white"/>
<path d="M112.108 34.224L111.569 33.5511C111.324 33.8099 110.735 34.2757 109.804 34.2757C108.628 34.2757 107.893 33.5511 107.893 32.4125C107.893 31.4809 108.53 30.9633 109.216 30.4975C108.922 30.1352 108.579 29.6694 108.579 29.1001C108.579 28.3237 109.118 27.7544 109.902 27.7544C110.637 27.7544 111.226 28.3237 111.226 29.1001C111.226 29.6176 110.931 29.9799 110.539 30.2387L110.098 30.5493L111.618 32.516C111.863 32.1019 111.961 31.7914 111.961 31.0668H112.549C112.549 31.8432 112.402 32.516 112.01 33.0336L112.941 34.224H112.108ZM109.559 30.9633C109.069 31.3256 108.53 31.6879 108.53 32.4125C108.53 33.1888 109.069 33.6546 109.804 33.6546C110.245 33.6546 110.686 33.5511 111.226 33.0336L109.559 30.9633ZM109.853 28.4272C109.461 28.4272 109.167 28.7378 109.167 29.1518C109.167 29.4624 109.314 29.6694 109.706 30.187L110.049 29.9799C110.343 29.7729 110.588 29.5659 110.588 29.2036C110.588 28.7378 110.294 28.4272 109.853 28.4272Z" fill="white"/>
<path d="M120.489 34.224H118.137V27.8579H120.391C121.421 27.8579 122.156 28.479 122.156 29.5659C122.156 30.2387 121.764 30.7563 121.274 30.9633C121.862 31.1703 122.254 31.6879 122.254 32.4642C122.254 33.6029 121.519 34.224 120.489 34.224ZM120.342 28.479H118.774V30.7045H120.342C121.029 30.7045 121.519 30.3422 121.519 29.6176C121.519 28.8413 121.029 28.479 120.342 28.479ZM120.44 31.2738H118.823V33.6029H120.44C121.176 33.6029 121.666 33.1371 121.666 32.4125C121.617 31.7396 121.176 31.2738 120.44 31.2738Z" fill="white"/>
<path d="M124.509 34.224V27.8579H128.234V28.479H125.146V30.7045H127.793V31.3256H125.146V33.6029H128.234V34.224H124.509Z" fill="white"/>
<path d="M134.017 33.5511C133.625 34.0169 133.135 34.224 132.449 34.224H130.39V27.8579H132.449C133.135 27.8579 133.625 28.0649 134.017 28.5307C134.556 29.1518 134.556 30.0834 134.556 31.0151C134.556 31.9467 134.556 32.9818 134.017 33.5511ZM133.527 28.9448C133.233 28.5825 132.792 28.479 132.351 28.479H131.027V33.6029H132.351C132.792 33.6029 133.233 33.4994 133.527 33.1371C133.919 32.723 133.919 31.8949 133.919 31.0151C133.919 30.1352 133.919 29.4106 133.527 28.9448Z" fill="white"/>
<path d="M138.527 34.2757C137.645 34.2757 137.056 34.0169 136.468 33.4476L136.909 32.9818C137.4 33.4994 137.89 33.6546 138.527 33.6546C139.409 33.6546 139.948 33.2406 139.948 32.4642C139.948 32.1019 139.85 31.8432 139.654 31.6879C139.458 31.5326 139.311 31.4291 138.87 31.3773L138.184 31.2738C137.694 31.1703 137.351 31.0668 137.105 30.808C136.811 30.4975 136.664 30.1352 136.664 29.6176C136.664 28.5307 137.4 27.8579 138.576 27.8579C139.36 27.8579 139.85 28.0649 140.34 28.5307L139.948 28.9448C139.605 28.5825 139.164 28.3755 138.527 28.3755C137.694 28.3755 137.252 28.8413 137.252 29.5659C137.252 29.8764 137.351 30.1352 137.547 30.2905C137.743 30.4457 138.037 30.5492 138.331 30.601L139.017 30.7045C139.556 30.808 139.85 30.9115 140.095 31.1703C140.438 31.4809 140.585 31.8949 140.585 32.4125C140.585 33.6029 139.752 34.2757 138.527 34.2757Z" fill="white"/>
<path d="M5.36379 14.6989C5.11872 14.6989 4.92267 14.5436 4.87365 14.2848L4.77563 13.612C4.72661 13.3532 4.92267 13.0427 5.16774 12.9909C5.41281 12.9391 5.70689 13.1462 5.7559 13.4049L5.85393 14.0778C5.90294 14.3366 5.70689 14.6471 5.46182 14.6989C5.41281 14.6989 5.4128 14.6989 5.36379 14.6989Z" fill="white"/>
<path d="M9.28491 37.006C9.03984 37.006 8.84378 36.8507 8.79477 36.5919L8.5497 35.298C8.50068 35.0392 8.69674 34.7287 8.94181 34.6769C9.18688 34.6252 9.48097 34.8322 9.52998 35.091L9.77505 36.3849C9.82407 36.6437 9.62801 36.9542 9.38294 37.006C9.33393 37.006 9.33393 37.006 9.28491 37.006ZM8.74576 33.7971C8.50068 33.7971 8.30463 33.6418 8.25561 33.383L8.01054 32.0891C7.96153 31.8303 8.15759 31.5198 8.40266 31.468C8.64773 31.4163 8.94181 31.6233 8.99083 31.8821L9.2359 33.176C9.28491 33.4348 9.08886 33.7453 8.84379 33.7971C8.79477 33.7971 8.74576 33.7971 8.74576 33.7971ZM8.15759 30.6399C7.91251 30.6399 7.71646 30.4846 7.66744 30.2259L7.47139 28.932C7.42237 28.6732 7.61843 28.3626 7.8635 28.3109C8.10857 28.2591 8.40266 28.4661 8.45167 28.7249L8.69674 30.0188C8.74576 30.2776 8.5497 30.5882 8.30463 30.6399C8.2066 30.6399 8.2066 30.6399 8.15759 30.6399ZM7.61843 27.431C7.37336 27.431 7.1773 27.2757 7.12829 27.017L6.88322 25.7231C6.8342 25.4643 7.03026 25.1537 7.27533 25.102C7.5204 25.0502 7.81449 25.2572 7.8635 25.516L8.10857 26.8099C8.15759 27.0687 7.96153 27.3793 7.71646 27.431C7.66744 27.431 7.61843 27.431 7.61843 27.431ZM7.03026 24.2739C6.78519 24.2739 6.58913 24.1186 6.54011 23.8598L6.29504 22.5659C6.24603 22.3071 6.44209 21.9966 6.68716 21.9448C6.93223 21.8931 7.22631 22.1001 7.27533 22.3589L7.5204 23.6528C7.56941 23.9116 7.37336 24.2221 7.12829 24.2739C7.07927 24.2739 7.07927 24.2739 7.03026 24.2739ZM6.4911 21.065C6.24603 21.065 6.04997 20.9097 6.00096 20.6509L5.75589 19.357C5.70687 19.0982 5.90293 18.7877 6.148 18.7359C6.39307 18.6842 6.68716 18.8912 6.73617 19.15L6.98124 20.4439C7.03026 20.7027 6.8342 21.0132 6.58913 21.065C6.54011 21.065 6.4911 21.065 6.4911 21.065ZM5.90293 17.9078C5.65786 17.9078 5.4618 17.7526 5.41279 17.4938L5.16772 16.1999C5.1187 15.9411 5.31476 15.6305 5.55983 15.5788C5.8049 15.527 6.09899 15.7341 6.148 15.9928L6.39307 17.2867C6.44209 17.5455 6.24603 17.8561 6.00096 17.9078C6.00096 17.9078 5.95195 17.9078 5.90293 17.9078Z" fill="white"/>
<path d="M9.72611 39.5939C9.48103 39.5939 9.28497 39.4386 9.23596 39.1798L9.13793 38.507C9.08892 38.2482 9.28497 37.9377 9.53005 37.8859C9.77512 37.8342 10.0692 38.0412 10.1182 38.3L10.2163 38.9728C10.2653 39.2316 10.0692 39.5421 9.82414 39.5939C9.77512 39.5939 9.77512 39.5939 9.72611 39.5939Z" fill="white"/>
<path d="M60.3088 14.6989C60.2597 14.6989 60.2597 14.6989 60.2107 14.6989C59.9656 14.6471 59.7696 14.3883 59.8186 14.0778L59.9166 13.4049C59.9656 13.1462 60.2107 12.9391 60.5048 12.9909C60.7499 13.0427 60.946 13.3014 60.897 13.612L60.7989 14.2848C60.7499 14.5436 60.5538 14.6989 60.3088 14.6989Z" fill="white"/>
<path d="M56.3878 37.006C56.3388 37.006 56.3388 37.006 56.2898 37.006C56.0447 36.9542 55.8487 36.6954 55.8977 36.3849L56.1428 35.091C56.1918 34.8322 56.4369 34.6252 56.7309 34.6769C56.976 34.7287 57.1721 34.9875 57.123 35.298L56.878 36.5919C56.829 36.7989 56.6329 37.006 56.3878 37.006ZM56.976 33.7971C56.927 33.7971 56.927 33.7971 56.878 33.7971C56.6329 33.7453 56.4369 33.4865 56.4859 33.176L56.7309 31.8821C56.7799 31.6233 57.025 31.4163 57.3191 31.468C57.5642 31.5198 57.7602 31.7786 57.7112 32.0891L57.4661 33.383C57.3681 33.6418 57.1721 33.7971 56.976 33.7971ZM57.5152 30.6399C57.4661 30.6399 57.4661 30.6399 57.4171 30.6399C57.1721 30.5882 56.976 30.3294 57.025 30.0188L57.2701 28.7249C57.3191 28.4661 57.5642 28.2591 57.8583 28.3109C58.1033 28.3626 58.2994 28.6214 58.2504 28.932L58.0053 30.2259C57.9563 30.4329 57.7602 30.6399 57.5152 30.6399ZM58.0543 27.431C58.0053 27.431 58.0053 27.431 57.9563 27.431C57.7112 27.3793 57.5152 27.1205 57.5642 26.8099L57.8092 25.516C57.8583 25.2572 58.1033 25.0502 58.3974 25.102C58.6425 25.1537 58.8385 25.4125 58.7895 25.7231L58.5445 27.017C58.4954 27.2757 58.2994 27.431 58.0543 27.431ZM58.6425 24.2739C58.5935 24.2739 58.5935 24.2739 58.5445 24.2739C58.2994 24.2221 58.1033 23.9633 58.1523 23.6528L58.3974 22.3589C58.4464 22.1001 58.6915 21.8931 58.9856 21.9448C59.2307 21.9966 59.4267 22.2554 59.3777 22.5659L59.1326 23.8598C59.0836 24.0668 58.8876 24.2739 58.6425 24.2739ZM59.1816 21.065C59.1326 21.065 59.1326 21.065 59.0836 21.065C58.8385 21.0132 58.6425 20.7544 58.6915 20.4439L58.9366 19.15C58.9856 18.8912 59.2307 18.6842 59.5247 18.7359C59.7698 18.7877 59.9659 19.0465 59.9168 19.357L59.6718 20.6509C59.6228 20.9097 59.4267 21.065 59.1816 21.065ZM59.7698 17.9078C59.7208 17.9078 59.7208 17.9078 59.6718 17.9078C59.4267 17.8561 59.2307 17.5973 59.2797 17.2867L59.5247 15.9928C59.5737 15.7341 59.8188 15.527 60.1129 15.5788C60.358 15.6305 60.554 15.8893 60.505 16.1999L60.2599 17.4938C60.2109 17.7008 59.9659 17.9078 59.7698 17.9078Z" fill="white"/>
<path d="M55.9464 39.5939C55.8974 39.5939 55.8974 39.5939 55.8484 39.5939C55.6033 39.5421 55.4073 39.2833 55.4563 38.9728L55.5543 38.3C55.6033 38.0412 55.8484 37.8342 56.1425 37.8859C56.3876 37.9377 56.5836 38.1965 56.5346 38.507L56.4366 39.1798C56.3876 39.3868 56.1915 39.5939 55.9464 39.5939Z" fill="white"/>
<path d="M0.511865 32.4516C0.266793 32.4516 0.0707355 32.2445 0.0217212 32.0375C-0.0272932 31.7787 0.168764 31.52 0.413836 31.4682C0.854965 31.4164 1.24708 31.3129 1.68821 31.2612C1.93328 31.2094 2.17835 31.4164 2.22737 31.6752C2.27638 31.934 2.08032 32.1928 1.83525 32.2445C1.39412 32.2963 1.00201 32.3481 0.56088 32.4516H0.511865ZM65.2108 32.4516H65.1618V31.934L65.2598 31.4164L65.1618 31.934L65.2598 31.4164C65.5049 31.4682 65.701 31.727 65.701 31.9858C65.6519 32.2445 65.4559 32.4516 65.2108 32.4516ZM63.2502 32.141H63.2012C62.7601 32.0893 62.368 32.0375 61.9268 31.9858C61.6818 31.934 61.4857 31.6752 61.4857 31.4164C61.5347 31.1577 61.7798 30.9506 62.0249 30.9506C62.466 31.0024 62.9071 31.0541 63.2992 31.1577C63.5443 31.2094 63.7404 31.4682 63.6914 31.727C63.6914 31.9858 63.4953 32.141 63.2502 32.141ZM3.6978 31.9858C3.45273 31.9858 3.25667 31.7787 3.20765 31.52C3.15864 31.2612 3.3547 31.0024 3.64878 30.9506C4.08991 30.8989 4.53104 30.8471 4.92316 30.7954C5.16823 30.7436 5.4133 30.9506 5.46232 31.2612C5.51133 31.52 5.31527 31.7787 5.02118 31.8305C4.58006 31.8823 4.18794 31.934 3.74681 31.9858C3.74681 31.9858 3.74681 31.9858 3.6978 31.9858ZM60.0153 31.727H59.9663C59.5251 31.6752 59.133 31.6235 58.6919 31.5717C58.4468 31.52 58.2508 31.2612 58.2508 31.0024C58.2998 30.7436 58.4958 30.5366 58.7899 30.5366C59.2311 30.5883 59.6722 30.6401 60.0643 30.6919C60.3094 30.7436 60.5054 31.0024 60.5054 31.2612C60.5054 31.52 60.2604 31.727 60.0153 31.727ZM6.93275 31.5717C6.68767 31.5717 6.49162 31.3647 6.4426 31.1059C6.39359 30.8471 6.58965 30.5883 6.88373 30.5366C7.32486 30.4848 7.76599 30.4331 8.1581 30.3813C8.40318 30.3296 8.64825 30.5366 8.69726 30.8471C8.74628 31.1059 8.55022 31.3647 8.25613 31.4164C7.815 31.4682 7.37387 31.52 6.98176 31.5717H6.93275ZM56.8293 31.3129H56.7803C56.3392 31.2612 55.9471 31.2094 55.506 31.1577C55.2609 31.1059 55.0648 30.8989 55.0648 30.5883C55.1139 30.3296 55.3099 30.1225 55.604 30.1225C56.0451 30.1743 56.4863 30.226 56.8784 30.2778C57.1234 30.3296 57.3195 30.5366 57.3195 30.8471C57.2705 31.1577 57.0744 31.3129 56.8293 31.3129ZM10.1677 31.2094C9.92262 31.2094 9.72656 31.0024 9.67755 30.7436C9.62853 30.4848 9.82459 30.226 10.1187 30.1743L11.3931 30.019C11.6381 30.019 11.8832 30.226 11.9322 30.4848C11.9812 30.7436 11.7852 31.0024 11.4911 31.0541L10.1677 31.2094C10.2167 31.2094 10.1677 31.2094 10.1677 31.2094ZM53.5944 31.0024C53.5454 31.0024 53.5454 31.0024 53.5944 31.0024C53.1043 30.9506 52.7121 30.8989 52.271 30.8989C52.0259 30.8989 51.7809 30.6401 51.8299 30.3296C51.8299 30.0708 52.075 29.8637 52.369 29.8637C52.8102 29.9155 53.2513 29.9155 53.6434 29.9673C53.8885 29.9673 54.0846 30.226 54.0846 30.5366C54.0355 30.7954 53.8395 31.0024 53.5944 31.0024ZM13.4026 30.8989C13.1576 30.8989 12.9615 30.6919 12.9125 30.4331C12.9125 30.1743 13.1086 29.9155 13.3536 29.8637L14.628 29.7602C14.8731 29.7602 15.1181 29.9673 15.1672 30.226C15.1672 30.4848 14.9711 30.7436 14.726 30.7954L13.4026 30.8989ZM50.3595 30.7436C50.3104 30.7436 50.3104 30.7436 50.3595 30.7436L49.0361 30.6401C48.791 30.6401 48.5459 30.3813 48.5949 30.0708C48.5949 29.812 48.84 29.5532 49.1341 29.605L50.4575 29.7085C50.7026 29.7085 50.9476 29.9673 50.8986 30.2778C50.8006 30.5366 50.6045 30.7436 50.3595 30.7436ZM16.6376 30.6401C16.3925 30.6401 16.1474 30.4331 16.1474 30.1743C16.1474 29.9155 16.3435 29.6567 16.5886 29.605L17.8629 29.5015C18.157 29.4497 18.3531 29.7085 18.4021 29.9673C18.4021 30.226 18.206 30.4848 17.961 30.5366L16.6376 30.6401ZM47.1245 30.4848C47.0755 30.4848 47.0755 30.4848 47.1245 30.4848L45.8011 30.3813C45.556 30.3813 45.311 30.1225 45.36 29.8637C45.36 29.605 45.6051 29.3462 45.8501 29.3979L47.1735 29.4497C47.4186 29.4497 47.6637 29.7085 47.6147 29.9673C47.5656 30.2778 47.3696 30.4848 47.1245 30.4848ZM19.8725 30.4331C19.6275 30.4331 19.3824 30.226 19.3824 29.9673C19.3824 29.7085 19.5784 29.4497 19.8235 29.4497C20.2646 29.4497 20.7058 29.3979 21.0979 29.3979C21.343 29.3979 21.588 29.605 21.588 29.8637C21.588 30.1225 21.392 30.3813 21.1469 30.3813C20.7548 30.3813 20.3137 30.3813 19.8725 30.4331ZM43.8405 30.3296C43.3994 30.3296 42.9583 30.2778 42.5172 30.2778C42.2721 30.2778 42.027 30.019 42.027 29.7602C42.027 29.5015 42.2721 29.2427 42.5172 29.2427C42.9583 29.2427 43.3994 29.2944 43.8405 29.2944C44.0856 29.2944 44.3307 29.5532 44.2817 29.812C44.3307 30.1225 44.1346 30.3296 43.8405 30.3296ZM23.1075 30.2778C22.8624 30.2778 22.6173 30.0708 22.6173 29.7602C22.6173 29.5015 22.8134 29.2427 23.1075 29.2427L24.3819 29.1909C24.6269 29.1909 24.872 29.3979 24.872 29.7085C24.872 29.9673 24.6759 30.226 24.3819 30.226L23.1075 30.2778ZM40.6056 30.1743L39.2822 30.1225C39.0371 30.1225 38.7921 29.8637 38.7921 29.605C38.7921 29.3462 39.0371 29.0874 39.2822 29.0874L40.6056 29.1392C40.8507 29.1392 41.0957 29.3979 41.0957 29.6567C41.0957 29.9673 40.8997 30.1743 40.6056 30.1743ZM26.3424 30.1225C26.0974 30.1225 25.8523 29.9155 25.8523 29.605C25.8523 29.3462 26.0483 29.0874 26.3424 29.0874L27.6168 29.0356C27.9109 29.0356 28.1069 29.2427 28.1069 29.5532C28.1069 29.812 27.9109 30.0708 27.6168 30.0708L26.3424 30.1225ZM37.3707 30.1225H36.0473C35.8022 30.1225 35.5571 29.8637 35.5571 29.605C35.5571 29.3462 35.8022 29.0874 36.0473 29.0874H37.3707C37.6157 29.0874 37.8608 29.3462 37.8608 29.605C37.8608 29.8637 37.6157 30.1225 37.3707 30.1225ZM29.5774 30.0708C29.3323 30.0708 29.0872 29.8637 29.0872 29.5532C29.0872 29.2944 29.2833 29.0356 29.5774 29.0356H30.8517C31.0968 29.0356 31.3419 29.2427 31.3419 29.5532C31.3419 29.812 31.1458 30.0708 30.8517 30.0708H29.5774ZM34.1357 30.0708H32.8613C32.6163 30.0708 32.3712 29.8637 32.3712 29.5532C32.3712 29.2427 32.6163 29.0356 32.9104 29.0356H34.1357C34.3808 29.0356 34.6259 29.2427 34.6259 29.5532C34.6259 29.812 34.3808 30.0708 34.1357 30.0708Z" fill="white"/>
<path d="M6.19687 3.26068C5.9518 3.26068 5.75574 3.05365 5.70672 2.79487C5.65771 2.53609 5.85377 2.27731 6.14785 2.22555C6.58898 2.17379 7.03011 2.12204 7.42223 2.07028C7.71631 2.07028 7.96138 2.27731 7.96138 2.58784C8.0104 2.84663 7.81434 3.10541 7.52025 3.15717C7.07912 3.20892 6.638 3.26068 6.24588 3.31244C6.24588 3.26068 6.19687 3.26068 6.19687 3.26068ZM59.3284 3.26068H59.2794C58.8383 3.20892 58.4461 3.15717 58.005 3.10541C57.7599 3.05365 57.5639 2.84663 57.5639 2.53609C57.6129 2.27731 57.809 2.07028 58.103 2.07028C58.5442 2.12204 58.9853 2.17379 59.3774 2.22555C59.6225 2.27731 59.8185 2.53609 59.8185 2.79487C59.7695 3.05365 59.5735 3.26068 59.3284 3.26068ZM9.43181 2.95014C9.18674 2.95014 8.99068 2.74311 8.94167 2.48433C8.89266 2.22555 9.08871 1.96677 9.3828 1.91501C9.82393 1.86325 10.2651 1.8115 10.6572 1.8115C10.9022 1.8115 11.1473 2.01852 11.1963 2.27731C11.1963 2.53609 11.0003 2.79487 10.7552 2.84663C10.3141 2.84663 9.92196 2.89838 9.43181 2.95014C9.48083 2.95014 9.43181 2.95014 9.43181 2.95014ZM56.0935 2.89838C56.0935 2.89838 56.0444 2.89838 56.0935 2.89838L54.7701 2.79487C54.525 2.79487 54.3289 2.53609 54.3289 2.22555C54.3289 1.96677 54.574 1.70798 54.8681 1.75974L56.1425 1.86325C56.3875 1.91501 56.5836 2.12204 56.5836 2.43257C56.5346 2.69136 56.3385 2.89838 56.0935 2.89838ZM12.6668 2.6396C12.4217 2.6396 12.2256 2.43257 12.1766 2.17379C12.1766 1.91501 12.3727 1.65623 12.6177 1.60447C13.0589 1.55271 13.5 1.55271 13.9411 1.50096C14.1862 1.50096 14.4313 1.70798 14.4803 1.96677C14.4803 2.22555 14.2842 2.48433 14.0392 2.53609C13.549 2.53609 13.1079 2.58784 12.6668 2.6396ZM52.8585 2.58784C52.8585 2.58784 52.8095 2.58784 52.8585 2.58784L51.5351 2.48433C51.29 2.48433 51.045 2.22555 51.094 1.91501C51.094 1.65623 51.3391 1.4492 51.6332 1.4492C52.0743 1.50096 52.5154 1.50096 52.9075 1.55271C53.1526 1.55271 53.3977 1.8115 53.3487 2.12204C53.2996 2.43257 53.1036 2.58784 52.8585 2.58784ZM15.9017 2.38082C15.6566 2.38082 15.4116 2.17379 15.4116 1.91501C15.4116 1.65623 15.6076 1.39745 15.8527 1.34569L17.1271 1.24218C17.4211 1.19042 17.6172 1.4492 17.6662 1.70798C17.6662 1.96677 17.4702 2.22555 17.2251 2.27731L15.9017 2.38082ZM49.6236 2.38082C49.6236 2.38082 49.5745 2.38082 49.6236 2.38082C49.1824 2.32906 48.7413 2.32906 48.3002 2.27731C48.0551 2.27731 47.81 2.01852 47.859 1.70798C47.859 1.4492 48.1041 1.19042 48.3982 1.24218C48.8393 1.29393 49.2805 1.29393 49.7216 1.34569C49.9667 1.34569 50.2117 1.60447 50.1627 1.91501C50.0647 2.17379 49.8686 2.38082 49.6236 2.38082ZM19.1367 2.17379C18.8916 2.17379 18.6465 1.96677 18.6465 1.70798C18.6465 1.4492 18.8426 1.19042 19.0876 1.19042L20.362 1.13866C20.6071 1.08691 20.8522 1.34569 20.8522 1.60447C20.8522 1.86325 20.6561 2.12204 20.411 2.12204L19.1367 2.17379ZM46.3886 2.17379C46.3886 2.17379 46.3396 2.17379 46.3886 2.17379C45.9475 2.17379 45.5064 2.12204 45.0652 2.12204C44.8202 2.12204 44.5751 1.86325 44.6241 1.60447C44.6241 1.34569 44.8692 1.08691 45.1142 1.13866C45.5554 1.13866 45.9965 1.19042 46.4376 1.19042C46.6827 1.19042 46.9278 1.4492 46.8788 1.70798C46.8297 1.96677 46.6337 2.17379 46.3886 2.17379ZM22.3716 2.01852C22.1265 2.01852 21.8815 1.8115 21.8815 1.50096C21.8815 1.24218 22.0775 0.983393 22.3716 0.983393L23.646 0.931637C23.891 0.931637 24.1361 1.13866 24.1361 1.4492C24.1361 1.70798 23.9401 1.96677 23.646 1.96677L22.3716 2.01852ZM43.1537 2.01852C43.1047 2.01852 43.1047 2.01852 43.1537 2.01852C42.7125 2.01852 42.2714 1.96677 41.8303 1.96677C41.5852 1.96677 41.3401 1.70798 41.3401 1.4492C41.3401 1.19042 41.5852 0.983393 41.8303 0.931637C42.2714 0.931637 42.7125 0.983393 43.1537 0.983393C43.3987 0.983393 43.6438 1.24218 43.6438 1.50096C43.5948 1.8115 43.3987 2.01852 43.1537 2.01852ZM25.6065 1.91501C25.3615 1.91501 25.1164 1.70798 25.1164 1.39745C25.1164 1.13866 25.3125 0.87988 25.6065 0.87988C26.0477 0.87988 26.4888 0.87988 26.9299 0.828124C27.224 0.828124 27.4201 1.03515 27.4201 1.34569C27.4201 1.60447 27.224 1.86325 26.9299 1.86325C26.4888 1.86325 26.0477 1.86325 25.6065 1.91501ZM39.8697 1.91501L38.5463 1.86325C38.3013 1.86325 38.0562 1.60447 38.0562 1.34569C38.0562 1.08691 38.3013 0.87988 38.5463 0.828124L39.8697 0.87988C40.1148 0.87988 40.3599 1.13866 40.3599 1.39745C40.3599 1.65623 40.1638 1.91501 39.8697 1.91501ZM28.8415 1.8115C28.5964 1.8115 28.3513 1.60447 28.3513 1.29393C28.3513 1.03515 28.5474 0.776367 28.8415 0.776367H30.1649C30.4099 0.776367 30.655 0.983393 30.655 1.29393C30.655 1.55271 30.459 1.8115 30.1649 1.8115H28.8415ZM36.6348 1.8115C36.1936 1.8115 35.7525 1.8115 35.3114 1.8115C35.0663 1.8115 34.8212 1.55271 34.8212 1.29393C34.8212 1.03515 35.0173 0.776367 35.3114 0.776367C35.7525 0.776367 36.1936 0.776367 36.6348 0.776367C36.8798 0.776367 37.1249 1.03515 37.1249 1.29393C37.1249 1.60447 36.9289 1.8115 36.6348 1.8115ZM33.3998 1.8115H32.8607H32.1255C31.8804 1.8115 31.6353 1.60447 31.6353 1.29393C31.6353 1.03515 31.8314 0.776367 32.1255 0.776367H32.9097H33.4488C33.6939 0.776367 33.939 0.983393 33.939 1.29393C33.89 1.55271 33.6449 1.8115 33.3998 1.8115Z" fill="white"/>
<path d="M51.486 14.3883C51.437 14.3883 51.388 14.3883 51.339 14.3883C50.7998 14.3366 50.4077 13.819 50.5058 13.2497L51.6821 3.93349C51.7311 3.67471 51.6331 3.46769 51.486 3.26066C51.339 3.05363 51.1429 2.95012 50.9469 2.95012C44.9181 2.32904 38.8403 2.07026 32.8606 2.07026C26.8809 2.07026 20.7541 2.32904 14.7743 2.89836C14.5783 2.89836 14.3332 3.05363 14.2352 3.2089C14.0881 3.41593 14.0391 3.62296 14.0391 3.88174L15.2154 13.1979C15.2645 13.7672 14.9214 14.2848 14.3822 14.3366C13.843 14.4401 13.3529 14.026 13.3039 13.4567L12.1275 4.14052C12.0295 3.36417 12.2256 2.53607 12.7157 1.91499C13.2058 1.29391 13.843 0.931617 14.6273 0.828104C20.656 0.310539 26.7828 0 32.8606 0C38.9384 0 45.0652 0.310539 51.0939 0.879861C51.8291 0.931617 52.5153 1.34567 53.0055 1.96675C53.4956 2.58783 53.6917 3.41593 53.5937 4.19228L52.4173 13.5084C52.3683 13.9743 51.9272 14.3883 51.486 14.3883Z" fill="white"/>
<path d="M23.5478 15.2679C19.4796 15.2679 16.1466 15.2161 13.892 14.2845L12.7646 13.8187L13.4508 12.7318C15.3624 9.78169 19.2345 7.91846 23.5478 7.91846C27.8611 7.91846 31.7332 9.78169 33.6447 12.7318L34.3309 13.8187L33.2036 14.2845C30.949 15.1644 27.665 15.2679 23.5478 15.2679ZM15.9996 12.7836C17.9112 13.1976 20.5089 13.2494 23.5478 13.2494C26.6357 13.2494 29.1844 13.1976 31.096 12.7836C29.3805 11.0756 26.5377 9.98871 23.5478 9.98871C20.5579 9.98871 17.7641 11.0238 15.9996 12.7836Z" fill="white"/>
<path d="M42.124 15.2679C38.0558 15.2679 34.7228 15.2161 32.4682 14.2845L31.3408 13.8187L32.027 12.7318C33.9386 9.78169 37.8107 7.91846 42.124 7.91846C46.4372 7.91846 50.3094 9.78169 52.2209 12.7318L52.9071 13.8187L51.7798 14.2845C49.5251 15.1644 46.2412 15.2679 42.124 15.2679ZM34.5758 12.7836C36.4873 13.1976 39.0851 13.2494 42.124 13.2494C45.2119 13.2494 47.7606 13.1976 49.6722 12.7836C47.9567 11.0756 45.1139 9.98871 42.124 9.98871C39.1341 9.98871 36.2913 11.0238 34.5758 12.7836Z" fill="white"/>
<path d="M9.77493 31.6752C8.45154 31.6752 7.32422 30.6918 7.07914 29.2944L5.9028 22.4625C5.80477 21.8932 5.95182 21.3239 6.2459 20.9099C6.53999 20.444 7.03013 20.1853 7.56929 20.1335C13.598 19.4607 19.6758 19.0466 25.7046 18.8396C30.459 18.6843 35.3114 18.6843 40.0168 18.8396C46.0455 19.0466 52.1233 19.4607 58.1521 20.1335C58.6912 20.1853 59.1324 20.4958 59.4755 20.9099C59.7695 21.3757 59.9166 21.945 59.8186 22.4625L58.6422 29.2944C58.3971 30.7953 57.1228 31.8305 55.6523 31.6752C40.6049 30.1743 25.0674 30.1743 10.02 31.6752C9.92197 31.6752 9.82395 31.6752 9.77493 31.6752ZM7.81436 22.2038L8.9907 28.9839C9.08873 29.3979 9.43183 29.7085 9.87296 29.6567C25.0674 28.104 40.703 28.104 55.8974 29.6567C56.3385 29.7085 56.6816 29.3979 56.7797 28.9839L57.956 22.2038C52.0253 21.5309 45.9475 21.1169 40.0168 20.9099C35.3114 20.7546 30.508 20.7546 25.8026 20.9099C19.8229 21.1169 13.7451 21.5309 7.81436 22.2038Z" fill="white"/>
<path d="M7.17706 22.4107C6.88298 22.4107 6.6379 22.3072 6.44185 22.0484C6.09874 21.6343 6.14776 20.9615 6.53987 20.5992L7.71622 19.5123C8.10834 19.15 8.74553 19.2018 9.08863 19.6158C9.43173 20.0299 9.38272 20.7027 8.9906 21.065L7.81425 22.1519C7.61819 22.3072 7.37312 22.4107 7.17706 22.4107Z" fill="white"/>
<path d="M58.5443 22.4107C58.2993 22.4107 58.1032 22.3072 57.9071 22.1519L56.7308 21.065C56.3387 20.7027 56.2897 20.0299 56.6328 19.6158C56.9759 19.2018 57.6131 19.15 58.0052 19.5123L59.1815 20.5992C59.5736 20.9615 59.6227 21.6343 59.2796 22.0484C59.0835 22.3072 58.7894 22.4107 58.5443 22.4107Z" fill="white"/>
<path d="M57.2208 22.0998C57.1718 22.0998 57.1228 22.0998 57.0248 22.0998C56.4856 21.9963 56.1425 21.4787 56.2405 20.9094L56.3876 20.1331C56.4856 19.4085 56.2405 18.6839 55.7014 18.2698L50.7999 14.1811C50.3588 13.8188 50.3098 13.1977 50.6529 12.7319C50.996 12.2661 51.5842 12.2143 52.0253 12.5766L56.9267 16.6654C58.0051 17.597 58.5442 19.0462 58.2991 20.4954L58.1521 21.2717C58.1031 21.7375 57.711 22.0998 57.2208 22.0998Z" fill="white"/>
<path d="M8.45137 22.1002C8.01024 22.1002 7.56911 21.7379 7.47108 21.2721L7.32403 20.4957C7.07896 19.0465 7.61812 17.5456 8.69644 16.6657L13.5979 12.577C14.039 12.2147 14.6272 12.3182 14.9703 12.7322C15.3134 13.198 15.2153 13.8191 14.8232 14.1814L9.92179 18.2702C9.38264 18.736 9.13756 19.4088 9.23559 20.1334L9.38264 20.9098C9.48067 21.4791 9.13757 21.9966 8.59841 22.1002C8.59841 22.1002 8.54939 22.1002 8.45137 22.1002Z" fill="white"/>
</svg>
