<svg width="21" height="18" viewBox="0 0 21 18" fill="none" xmlns="http://www.w3.org/2000/svg">
<path d="M15.176 8.32045C14.3227 8.02178 13.6613 7.53111 13.192 6.84845C12.7227 6.16578 12.488 5.33378 12.488 4.35244C12.488 3.07245 12.8933 2.02711 13.704 1.21644C14.5147 0.405776 15.5173 0.000446799 16.712 0.000446694C17.9493 0.000446586 18.9733 0.405775 19.784 1.21644C20.5947 2.06978 21 3.11511 21 4.35244C21 4.94978 20.936 5.54711 20.808 6.14444C20.6373 6.78444 20.3173 7.70178 19.848 8.89645L16.84 17.8564L12.808 17.8564L15.176 8.32045ZM3.08 8.32045C2.22666 8.02178 1.56533 7.53111 1.096 6.84845C0.626664 6.16578 0.391997 5.33378 0.391997 4.35245C0.391997 3.07245 0.797331 2.02711 1.608 1.21644C2.41867 0.405777 3.42133 0.000447856 4.616 0.000447752C5.85333 0.000447644 6.87733 0.405776 7.688 1.21644C8.49866 2.06978 8.904 3.11511 8.904 4.35244C8.904 4.94978 8.84 5.54711 8.712 6.14444C8.54133 6.78444 8.22133 7.70178 7.752 8.89645L4.744 17.8564L0.712 17.8564L3.08 8.32045Z" fill="white" fill-opacity="0.2"/>
</svg>
